#File written by RizomUV 2022.1.57.gfabcfb8. Compilation :Sep 28 2022,23:52:22
mtllib Creme.mtl
#begin vertices
v -1.1425 0.003 1.1414
v -1.5424 0.0005 0
v 0 0.0205 0
v -0 0.0005 1.5409
v -1.1425 0.003 -1.1414
v -0 0.0005 -1.5409
v 1.1425 0.003 -1.1414
v 1.5424 0.0005 0
v 1.1425 0.003 1.1414
v -1.3889 9.9824 0.0382
v 0 9.9901 0.0516
v 0 10 -0
v -1.875 9.9901 -0
v 1.3889 9.9824 0.0382
v 1.875 9.9901 0
v 1.3889 9.9824 -0.0382
v 0 9.9901 -0.0516
v -1.3889 9.9824 -0.0382
v 0 0.089 1.629
v -1.2229 0.089 1.2217
v 1.2229 0.089 1.2217
v 1.2229 1.7894 1.2217
v 0 1.7894 1.629
v 1.6306 0.089 0
v 1.2229 0.089 -1.2217
v 1.2229 1.7894 -1.2217
v 1.6306 1.7894 -0
v 0 0.089 -1.629
v -1.2229 0.089 -1.2217
v -1.2229 1.7894 -1.2217
v 0 1.7894 -1.629
v -1.6306 0.089 0
v -1.2229 1.7894 1.2217
v -1.6306 1.7894 -0
v 1.2442 3.0572 1.1376
v 1.3878 5.2569 0.7592
v -0 5.2569 1.0123
v -0 3.0572 1.5168
v 1.6069 7.6673 0.3944
v -0 7.6673 0.5259
v -1.6069 7.6673 0.3944
v -1.3878 5.2569 0.7592
v -1.2442 3.0572 1.1376
v 1.2442 3.0572 -1.1376
v 1.3878 5.2569 -0.7592
v 1.8504 5.2569 -0
v 1.659 3.0572 -0
v 1.6069 7.6673 -0.3944
v 2.1426 7.6673 -0
v -1.2442 3.0572 -1.1376
v -1.3878 5.2569 -0.7592
v 0 5.2569 -1.0123
v 0 3.0572 -1.5168
v -1.6069 7.6673 -0.3944
v 0 7.6673 -0.5259
v -1.8504 5.2569 -0
v -1.659 3.0572 -0
v -2.1426 7.6673 -0
v 1.875 9.9605 0.0516
v 0 9.9605 0.0688
v -1.875 9.9605 0.0516
v 1.875 9.9605 -0.0516
v 2.5 9.9605 0
v -1.875 9.9605 -0.0516
v 0 9.9605 -0.0688
v -2.5 9.9605 -0
v 1.1348 1.8294 1.1105
v 1.1348 2.0494 1.1105
v -0 2.0494 1.4884
v -0 1.8294 1.4884
v 1.2234 2.0893 1.22
v -0 2.0892 1.6267
v -1.2234 2.0893 1.22
v -1.1348 2.0494 1.1105
v -1.1348 1.8294 1.1105
v 1.1348 1.8294 -1.1105
v 1.1348 2.0494 -1.1105
v 1.5053 2.0494 0
v 1.5053 1.8294 -0
v 1.2234 2.0893 -1.22
v 1.6311 2.0893 -0
v -1.1348 1.8294 -1.1105
v -1.1348 2.0494 -1.1105
v 0 2.0494 -1.4884
v 0 1.8294 -1.4884
v -1.2234 2.0893 -1.22
v 0 2.0892 -1.6267
v -1.5053 2.0494 0
v -1.5053 1.8294 -0
v -1.6311 2.0893 -0
v 0 1.8094 1.6079
v 1.2071 1.8094 1.2059
v 1.1506 1.8094 1.1263
v -0 1.8094 1.5095
v 1.6095 1.8094 -0
v 1.5264 1.8094 -0
v 1.2071 1.8094 -1.2059
v 1.1506 1.8094 -1.1263
v -0 1.8094 -1.6079
v -0 1.8094 -1.5095
v -1.2071 1.8094 -1.2059
v -1.1506 1.8094 -1.1263
v -1.6095 1.8094 -0
v -1.5264 1.8094 -0
v -1.2071 1.8094 1.2059
v -1.1506 1.8094 1.1263
v 1.2071 2.0694 1.2059
v 0 2.0694 1.6079
v -0 2.0694 1.5095
v 1.1506 2.0694 1.1263
v -1.2071 2.0694 1.2059
v -1.1506 2.0694 1.1263
v -1.6095 2.0694 -0
v -1.5264 2.0694 0
v -1.2071 2.0694 -1.2059
v -1.1506 2.0694 -1.1263
v 0 2.0694 -1.6079
v 0 2.0694 -1.5095
v 1.2071 2.0694 -1.2059
v 1.1506 2.0694 -1.1263
v 1.6095 2.0694 -0
v 1.5264 2.0694 0
#end vertices

#begin 146 textures vertices 
vt 0.7656615 0.9138101 0
vt 0.760304 0.821602 0
vt 0.8735544 0.8540844 0
vt 0.8411083 0.9672301 0
vt 0.8137395 0.7462849 0
vt 0.9060005 0.7409386 0
vt 0.9814472 0.7943586 0
vt 0.9868047 0.8865668 0
vt 0.9333693 0.9618838 0
vt 0.0932557 0.779443 0
vt 0.1987317 0.7835581 0
vt 0.1984975 0.7875846 0
vt 0.05612128 0.780626 0
vt 0.3033299 0.7890052 0
vt 0.4328342 0.7930069 0
vt 0.4690967 0.7890966 0
vt 0.5726874 0.7854535 0
vt 0.6774464 0.7842516 0
vt 0.838493 0.9765186 0
vt 0.7560057 0.9192318 0
vt 0.9387973 0.971537 0
vt 0.2984382 0.1342038 0
vt 0.2043452 0.1344905 0
vt 0.9960938 0.889203 0
vt 0.991103 0.7889369 0
vt 0.4871928 0.1345771 0
vt 0.3927322 0.1357174 0
vt 0.9086157 0.7316502 0
vt 0.8083114 0.7366317 0
vt 0.6761752 0.1385077 0
vt 0.5816848 0.1349663 0
vt 0.751015 0.8189658 0
vt 0.1097141 0.138157 0
vt 0.01379656 0.1449415 0
vt 0.303257 0.2470992 0
vt 0.3219248 0.4189888 0
vt 0.2119281 0.4157586 0
vt 0.2075189 0.2458749 0
vt 0.3362723 0.6092124 0
vt 0.2096932 0.6023819 0
vt 0.0844634 0.6004094 0
vt 0.1023636 0.4173507 0
vt 0.1108918 0.2500459 0
vt 0.4816314 0.2476653 0
vt 0.4605349 0.4190402 0
vt 0.391232 0.423521 0
vt 0.3925236 0.2499738 0
vt 0.4409845 0.608418 0
vt 0.3886661 0.614509 0
vt 0.6747303 0.2511028 0
vt 0.6807391 0.4215065 0
vt 0.5709605 0.4175431 0
vt 0.5780131 0.2466261 0
vt 0.6927793 0.6065622 0
vt 0.5675333 0.6048134 0
vt 0.034402 0.4222211 0
vt 0.01984299 0.2555306 0
vt 0.03341657 0.6029322 0
vt 0.3401419 0.7889516 0
vt 0.1988848 0.7809345 0
vt 0.05637904 0.7760343 0
vt 0.4326115 0.7884132 0
vt 0.3865899 0.7944689 0
vt 0.7140832 0.7818633 0
vt 0.5725937 0.7828265 0
vt 0.008448491 0.7768765 0
vt 0.3000464 0.1449465 0
vt 0.3004569 0.1620415 0
vt 0.2051673 0.1618986 0
vt 0.2046627 0.1456156 0
vt 0.2991726 0.1727847 0
vt 0.2055141 0.1727386 0
vt 0.1120063 0.1766984 0
vt 0.110155 0.1661889 0
vt 0.1088841 0.1490489 0
vt 0.4855324 0.1454382 0
vt 0.4855343 0.1625845 0
vt 0.3926154 0.1630685 0
vt 0.3927329 0.1460101 0
vt 0.4867877 0.1732563 0
vt 0.392587 0.173498 0
vt 0.6769808 0.1493447 0
vt 0.6764288 0.1666247 0
vt 0.5808167 0.1624514 0
vt 0.581343 0.1461181 0
vt 0.6746092 0.1773356 0
vt 0.5804338 0.173326 0
vt 0.01874668 0.1708374 0
vt 0.01795261 0.1547377 0
vt 0.0160154 0.1810849 0
vt 0.2044143 0.1366063 0
vt 0.298447 0.1363554 0
vt 0.3000282 0.1427742 0
vt 0.2045903 0.143529 0
vt 0.3927349 0.1378958 0
vt 0.3927314 0.1438427 0
vt 0.4871989 0.1367309 0
vt 0.4855401 0.1432623 0
vt 0.5816303 0.1370878 0
vt 0.5813959 0.1440251 0
vt 0.6760248 0.1406563 0
vt 0.6771248 0.1471569 0
vt 0.7714002 0.1469967 0
vt 0.7687891 0.1527436 0
vt 0.1098809 0.1402932 0
vt 0.1087276 0.1468742 0
vt 0.298994 0.1706872 0
vt 0.2054416 0.1707716 0
vt 0.2052471 0.163961 0
vt 0.3004992 0.1642055 0
vt 0.112053 0.1746137 0
vt 0.1102506 0.1683513 0
vt 0.01649933 0.1788965 0
vt 0.01831356 0.1729465 0
vt 0.6745352 0.1752347 0
vt 0.6763555 0.1688058 0
vt 0.580495 0.171353 0
vt 0.580756 0.1645208 0
vt 0.4869515 0.1711515 0
vt 0.4855055 0.1647554 0
vt 0.392591 0.1712735 0
vt 0.3926126 0.1652545 0
vt 0.00390625 0.01544388 0
vt 0.3921985 0.004538076 0
vt 0.6830046 0.008624195 0
vt 0.2963079 0.00390625 0
vt 0.1992561 0.005480495 0
vt 0.5853208 0.005672632 0
vt 0.1016602 0.008732044 0
vt 0.4882423 0.004145303 0
vt 0.7670249 0.1732037 0
vt 0.7693184 0.1814396 0
vt 0.7437231 0.6094105 0
vt 0.7618147 0.7830068 0
vt 0.7665852 0.1710684 0
vt 0.7490082 0.4274839 0
vt 0.7688317 0.1792262 0
vt 0.7663161 0.257511 0
vt 0.768072 0.1548077 0
vt 0.0172182 0.1527009 0
vt 0.01456909 0.1470271 0
vt 0.7721552 0.1448852 0
vt 0.780765 0.0146549 0
vt 0.7142561 0.7864584 0
vt 0.5728303 0.7894846 0
vt 0.3398904 0.7935453 0
#end 146 textures vertices 

#begin 122 normals 
vn -0.2802 -0.9181 0.2805
vn -0.4443 -0.8959 0
vn 0 -1 0
vn 0 -0.8958 0.4444
vn -0.2802 -0.9181 -0.2805
vn 0 -0.8958 -0.4444
vn 0.2802 -0.9181 -0.2805
vn 0.4443 -0.8959 0
vn 0.2802 -0.9181 0.2805
vn -0.0101 0.8479 0.5301
vn -0 0.8149 0.5796
vn 0 1 -0
vn -0.046 0.9989 -0
vn 0.0101 0.8479 0.5301
vn 0.046 0.9989 -0
vn 0.0101 0.8479 -0.5301
vn 0 0.8149 -0.5796
vn -0.0101 0.8479 -0.5301
vn -0 -0.3569 0.9342
vn -0.6475 -0.4013 0.6478
vn 0.6475 -0.4013 0.6478
vn 0.6567 0.3703 0.657
vn 0 0.3686 0.9296
vn 0.9341 -0.357 0
vn 0.6475 -0.4013 -0.6478
vn 0.6566 0.3703 -0.657
vn 0.9296 0.3686 -0
vn 0 -0.3569 -0.9342
vn -0.6475 -0.4013 -0.6478
vn -0.6566 0.3703 -0.657
vn 0 0.3686 -0.9296
vn -0.9341 -0.357 0
vn -0.6567 0.3703 0.657
vn -0.9296 0.3686 -0
vn 0.6783 0.0658 0.7319
vn 0.5648 0.0891 0.8204
vn -0 0.211 0.9775
vn -0 0.1668 0.986
vn 0.3478 0.1044 0.9317
vn -0 0.1967 0.9805
vn -0.3478 0.1044 0.9317
vn -0.5648 0.0891 0.8204
vn -0.6783 0.0658 0.7319
vn 0.6783 0.0658 -0.7319
vn 0.5648 0.0891 -0.8204
vn 0.9946 -0.1041 -0
vn 0.9983 -0.0581 0
vn 0.3478 0.1044 -0.9317
vn 0.9904 -0.1384 0
vn -0.6783 0.0658 -0.7319
vn -0.5648 0.0891 -0.8204
vn 0 0.211 -0.9775
vn 0 0.1668 -0.986
vn -0.3478 0.1044 -0.9317
vn 0 0.1967 -0.9805
vn -0.9946 -0.1041 -0
vn -0.9983 -0.0581 0
vn -0.9904 -0.1384 0
vn 0.0455 0.6053 0.7947
vn -0 0.3532 0.9356
vn -0.0455 0.6053 0.7947
vn 0.0455 0.6053 -0.7947
vn 0.8827 0.47 -0
vn -0.0455 0.6053 -0.7947
vn 0 0.3532 -0.9356
vn -0.8827 0.47 0
vn 0.628 0.4592 0.6283
vn 0.628 -0.4592 0.6283
vn 0 -0.4269 0.9043
vn -0 0.4269 0.9043
vn 0.6578 -0.342 0.6711
vn -0 -0.2941 0.9558
vn -0.6578 -0.342 0.6711
vn -0.628 -0.4592 0.6283
vn -0.628 0.4592 0.6283
vn 0.628 0.4592 -0.6283
vn 0.6279 -0.4592 -0.6283
vn 0.9042 -0.427 0
vn 0.9042 0.427 -0
vn 0.6578 -0.342 -0.6711
vn 0.922 -0.3873 0
vn -0.628 0.4592 -0.6283
vn -0.628 -0.4592 -0.6283
vn 0 -0.4269 -0.9043
vn 0 0.4269 -0.9043
vn -0.6578 -0.342 -0.6711
vn 0 -0.2941 -0.9558
vn -0.9042 -0.427 0
vn -0.9042 0.427 -0
vn -0.922 -0.3873 0
vn 0 0.9018 0.432
vn 0.3119 0.8974 0.312
vn 0.183 0.9659 0.1831
vn -0 0.9534 0.3017
vn 0.4321 0.9018 0
vn 0.3016 0.9534 -0
vn 0.3119 0.8974 -0.312
vn 0.183 0.9659 -0.1831
vn -0 0.9018 -0.432
vn -0 0.9534 -0.3017
vn -0.3119 0.8974 -0.312
vn -0.183 0.9659 -0.1831
vn -0.4321 0.9018 0
vn -0.3016 0.9534 -0
vn -0.3119 0.8974 0.312
vn -0.183 0.9659 0.1831
vn 0.3122 -0.8924 0.3259
vn 0 -0.8885 0.4589
vn 0 -0.9534 0.3017
vn 0.183 -0.9659 0.1831
vn -0.3122 -0.8924 0.3259
vn -0.183 -0.9659 0.1831
vn -0.4252 -0.9051 -0
vn -0.3016 -0.9534 0
vn -0.3122 -0.8924 -0.3259
vn -0.183 -0.9659 -0.1831
vn 0 -0.8885 -0.4589
vn 0 -0.9534 -0.3017
vn 0.3122 -0.8924 -0.3259
vn 0.183 -0.9659 -0.1831
vn 0.4252 -0.9051 -0
vn 0.3016 -0.9534 0
#end 122 normals 

#begin 120 faces
o Creme
usemtl wire_228153184
g Creme
s 1
f 1/1/1 2/2/2 3/3/3 4/4/4 
f 2/2/2 5/5/5 6/6/6 3/3/3 
f 7/7/7 8/8/8 3/3/3 6/6/6 
f 8/8/8 9/9/9 4/4/4 3/3/3 
f 10/10/10 11/11/11 12/12/12 13/13/13 
f 11/11/11 14/14/14 15/146/15 12/12/12 
f 16/16/16 17/17/17 12/145/12 15/15/15 
f 17/17/17 18/18/18 13/144/13 12/145/12 
f 1/1/1 4/4/4 19/19/19 20/20/20 
f 4/4/4 9/9/9 21/21/21 19/19/19 
s 2
f 22/22/22 23/23/23 19/127/19 21/126/21 
s 1
f 9/9/9 8/8/8 24/24/24 21/21/21 
f 8/8/8 7/7/7 25/25/25 24/24/24 
s 2
f 26/26/26 27/27/27 24/124/24 25/130/25 
s 1
f 7/7/7 6/6/6 28/28/28 25/25/25 
f 6/6/6 5/5/5 29/29/29 28/28/28 
s 2
f 30/30/30 31/31/31 28/128/28 29/125/29 
s 1
f 5/5/5 2/2/2 32/32/32 29/29/29 
f 2/2/2 1/1/1 20/20/20 32/32/32 
s 2
f 33/33/33 34/34/34 32/123/32 20/129/20 
s 1
f 35/35/35 36/36/36 37/37/37 38/38/38 
f 36/36/36 39/39/39 40/40/40 37/37/37 
f 41/41/41 42/42/42 37/37/37 40/40/40 
f 42/42/42 43/43/43 38/38/38 37/37/37 
f 44/44/44 45/45/45 46/46/46 47/47/47 
f 45/45/45 48/48/48 49/49/49 46/46/46 
f 39/39/39 36/36/36 46/46/46 49/49/49 
f 36/36/36 35/35/35 47/47/47 46/46/46 
f 50/50/50 51/51/51 52/52/52 53/53/53 
f 51/51/51 54/54/54 55/55/55 52/52/52 
f 48/48/48 45/45/45 52/52/52 55/55/55 
f 45/45/45 44/44/44 53/53/53 52/52/52 
f 43/43/43 42/42/42 56/56/56 57/57/57 
f 42/42/42 41/41/41 58/58/58 56/56/56 
f 54/54/54 51/51/51 56/136/56 58/133/58 
f 51/51/51 50/50/50 57/138/57 56/136/56 
f 39/39/39 59/59/59 60/60/60 40/40/40 
f 59/59/59 14/14/14 11/11/11 60/60/60 
f 10/10/10 61/61/61 60/60/60 11/11/11 
f 61/61/61 41/41/41 40/40/40 60/60/60 
f 48/48/48 62/62/62 63/63/63 49/49/49 
f 62/62/62 16/16/16 15/15/15 63/63/63 
f 14/14/14 59/59/59 63/63/63 15/146/15 
f 59/59/59 39/39/39 49/49/49 63/63/63 
f 54/54/54 64/64/64 65/65/65 55/55/55 
f 64/64/64 18/18/18 17/17/17 65/65/65 
f 16/16/16 62/62/62 65/65/65 17/17/17 
f 62/62/62 48/48/48 55/55/55 65/65/65 
f 41/41/41 61/61/61 66/66/66 58/58/58 
f 61/61/61 10/10/10 13/13/13 66/66/66 
f 18/18/18 64/64/64 66/134/66 13/144/13 
f 64/64/64 54/54/54 58/133/58 66/134/66 
s 4
f 33/33/33 20/129/20 19/127/19 23/23/23 
f 22/22/22 21/126/21 24/124/24 27/27/27 
f 26/26/26 25/130/25 28/128/28 31/31/31 
f 30/30/30 29/125/29 32/143/32 34/142/34 
s 1
f 67/67/67 68/68/68 69/69/69 70/70/70 
f 71/71/71 35/35/35 38/38/38 72/72/72 
f 43/43/43 73/73/73 72/72/72 38/38/38 
s 2
f 74/74/74 75/75/75 70/70/70 69/69/69 
s 1
f 76/76/76 77/77/77 78/78/78 79/79/79 
f 80/80/80 44/44/44 47/47/47 81/81/81 
f 35/35/35 71/71/71 81/81/81 47/47/47 
s 2
f 68/68/68 67/67/67 79/79/79 78/78/78 
s 1
f 82/82/82 83/83/83 84/84/84 85/85/85 
f 86/86/86 50/50/50 53/53/53 87/87/87 
f 44/44/44 80/80/80 87/87/87 53/53/53 
s 2
f 77/77/77 76/76/76 85/85/85 84/84/84 
s 1
f 75/75/75 74/74/74 88/88/88 89/89/89 
f 73/73/73 43/43/43 57/57/57 90/90/90 
f 50/50/50 86/86/86 90/132/90 57/138/57 
s 2
f 83/83/83 82/82/82 89/139/89 88/135/88 
s 1
f 91/91/91 92/92/92 93/93/93 94/94/94 
f 92/92/92 95/95/95 96/96/96 93/93/93 
f 95/95/95 97/97/97 98/98/98 96/96/96 
f 97/97/97 99/99/99 100/100/100 98/98/98 
f 99/99/99 101/101/101 102/102/102 100/100/100 
f 101/101/101 103/103/103 104/104/104 102/102/102 
f 103/141/103 105/105/105 106/106/106 104/140/104 
f 105/105/105 91/91/91 94/94/94 106/106/106 
f 107/107/107 108/108/108 109/109/109 110/110/110 
f 108/108/108 111/111/111 112/112/112 109/109/109 
f 111/111/111 113/113/113 114/114/114 112/112/112 
f 113/137/113 115/115/115 116/116/116 114/131/114 
f 115/115/115 117/117/117 118/118/118 116/116/116 
f 117/117/117 119/119/119 120/120/120 118/118/118 
f 119/119/119 121/121/121 122/122/122 120/120/120 
f 121/121/121 107/107/107 110/110/110 122/122/122 
s 4
f 69/69/69 68/68/68 110/110/110 109/109/109 
f 67/67/67 70/70/70 94/94/94 93/93/93 
f 70/70/70 75/75/75 106/106/106 94/94/94 
f 74/74/74 69/69/69 109/109/109 112/112/112 
s 8
f 78/78/78 77/77/77 120/120/120 122/122/122 
f 76/76/76 79/79/79 96/96/96 98/98/98 
f 79/79/79 67/67/67 93/93/93 96/96/96 
f 68/68/68 78/78/78 122/122/122 110/110/110 
s 4
f 84/84/84 83/83/83 116/116/116 118/118/118 
f 82/82/82 85/85/85 100/100/100 102/102/102 
f 85/85/85 76/76/76 98/98/98 100/100/100 
f 77/77/77 84/84/84 118/118/118 120/120/120 
s 8
f 88/88/88 74/74/74 112/112/112 114/114/114 
f 75/75/75 89/89/89 104/140/104 106/106/106 
f 89/139/89 82/82/82 102/102/102 104/104/104 
f 83/83/83 88/135/88 114/131/114 116/116/116 
f 92/92/92 91/91/91 23/23/23 22/22/22 
s 16
f 95/95/95 92/92/92 22/22/22 27/27/27 
f 97/97/97 95/95/95 27/27/27 26/26/26 
s 8
f 99/99/99 97/97/97 26/26/26 31/31/31 
f 101/101/101 99/99/99 31/31/31 30/30/30 
s 16
f 103/103/103 101/101/101 30/30/30 34/142/34 
f 105/105/105 103/141/103 34/34/34 33/33/33 
s 8
f 91/91/91 105/105/105 33/33/33 23/23/23 
s 2
f 108/108/108 107/107/107 71/71/71 72/72/72 
f 111/111/111 108/108/108 72/72/72 73/73/73 
s 4
f 113/113/113 111/111/111 73/73/73 90/90/90 
f 115/115/115 113/137/113 90/132/90 86/86/86 
s 2
f 117/117/117 115/115/115 86/86/86 87/87/87 
f 119/119/119 117/117/117 87/87/87 80/80/80 
s 4
f 121/121/121 119/119/119 80/80/80 81/81/81 
f 107/107/107 121/121/121 81/81/81 71/71/71 
#end 120 faces

#ZOMPROPERTIES_04{
#ZOMPROPERTIES_04 table {Mesh table {SymPlane table {Point vector3d 0 0 0 Normal vector3d 1 0 0 Threshold double 0.01 
#ZOMPROPERTIES_04 Enabled bool false EdgeID int -1 SymEdgeID int -1 UPos double 0.5 LocalMode bool false } RootGroup C
#ZOMPROPERTIES_04 SubMeshGroup {Children table {Tile_0_0 CSubMeshGroup {Children table {} BBoxUV box3d 0 0 0 0 0 0 BBo
#ZOMPROPERTIES_04 x3D box3d 0 0 0 0 0 0 Area3D double 0 AreaUV double 0.623715 IsRoot bool false Properties table {Sel
#ZOMPROPERTIES_04 ected bool false Box box3d 0 1 0 1 0 1 U int 0 V int 0 NU int 0 NV int 0 Tiling vector3d 1 1 1 TileR
#ZOMPROPERTIES_04 atioMode string "1:1" Overflow string "Off" Pack table {BoxFrameEdit bool false Behavior string "Fre
#ZOMPROPERTIES_04 e" } } IsTile bool true PolyIDs ints { 0 3 11 12 14 15 17 1 2 9 8 18 4 5 37 42 43 40 47 44 51 34 35 
#ZOMPROPERTIES_04 70 115 83 84 96 103 71 102 77 109 55 16 54 13 53 10 52 19 110 78 79 90 101 68 100 82 114 69 32 33 48
#ZOMPROPERTIES_04  49 38 39 22 21 20 27 24 31 28 66 65 117 118 86 85 99 67 64 98 75 107 108 74 106 105 73 72 89 56 59 
#ZOMPROPERTIES_04 88 80 112 113 57 119 62 87 81 95 92 60 63 94 93 91 76 97 61 30 25 26 58 23 104 111 116 29 50 7 45 46
#ZOMPROPERTIES_04  6 41 36 } } } BBoxUV box3d 0 0 0 0 0 0 BBox3D box3d 0 0 0 0 0 0 Area3D double 0 AreaUV double 0 IsR
#ZOMPROPERTIES_04 oot bool true Properties table {Selected bool false Box box3d 0 1 0 1 0 1 U int 0 V int 0 NU int 1 N
#ZOMPROPERTIES_04 V int 1 Tiling vector3d 1 1 1 TileRatioMode string "1:1" Overflow string "Off" Pack table {Rotate ta
#ZOMPROPERTIES_04 ble {Mode int 0 Min double 0 Max double 90 Step double 0 } PaddingSize double 0.0078125 MarginSize d
#ZOMPROPERTIES_04 ouble 0.00390625 Resolution int 256 MapResolution int 2048 Scaling table {TexelDensity double 1024 M
#ZOMPROPERTIES_04 ode int 2 } LayoutScalingMode int 2 MaxMutations int 1 } } IsTile bool false PolyIDs ints { } } Maps
#ZOMPROPERTIES_04  table {Density table {PrimType string "Polygon" Size int 1 DefaultValue double 1 ScaleType string "
#ZOMPROPERTIES_04 Log" MergeMode string "Average" MinValue double 0.1 MaxValue double 4 Data doubles { r 120 1 } } Pin
#ZOMPROPERTIES_04  table {PrimType string "Vertex" Size int 1 DefaultValue double 0 ScaleType string "Normalized" Merg
#ZOMPROPERTIES_04 eMode string "Max" MinValue double 0 MaxValue double 1 Data doubles { r 146 0 } } Protect table {Pri
#ZOMPROPERTIES_04 mType string "Vertex" Size int 1 DefaultValue double 0 ScaleType string "Normalized" MergeMode strin
#ZOMPROPERTIES_04 g "Average" MinValue double -1 MaxValue double 1 Data doubles { r 146 0 } } } } }
#ZOMPROPERTIES_04}


#ZOMSCENE_01{
#ZOMSCENE_01 CScene {Settings table {AxisSystem table {UpVector string "y" } Unit string "cm" TexelDensityDisplay
#ZOMSCENE_01 Unit string "tx/cm" } }
#ZOMSCENE_01}

#begin 0 fatal error vertex (that RizomUV cannot handle)
#end 0 fatal error vertex (that RizomUV cannot handle)

#begin 0 error vertex
#end 0 error vertex
